<?xml version="1.0" encoding="utf8" standalone="no"?>
<svg viewBox="0 0 36 36" xmlns="http://www.w3.org/2000/svg">
<defs>
<linearGradient gradientUnits="userSpaceOnUse" id="linearGradient1483" x1="21.46388" x2="39.38615" y1="15.76599" y2="47.09816">
<stop offset="0" stop-color="#982007"/>
<stop offset="1" stop-color="#510f02"/>
</linearGradient>
<linearGradient gradientUnits="userSpaceOnUse" id="linearGradient1485" x1="-16.09201" x2="10" y1="17.94392" y2="44.0378">
<stop offset="0" stop-color="#f1140c"/>
<stop offset="1" stop-color="#8d1a02"/>
</linearGradient>
<linearGradient gradientUnits="userSpaceOnUse" id="linearGradient1487" x1="19.99822" x2="46.09024" y1="19.03416" y2="45.12804">
<stop offset="0" stop-color="#ff8b8e"/>
<stop offset="1" stop-color="#b42314" stop-opacity=".72241"/>
</linearGradient>
</defs>
<g transform="translate(-14.00000,-14.00000)">
<path d="m16.0251,21.21133c-.37601.45376-.34185,1.1199.0786,1.53282l9.25585,9.25585-9.25585,9.25585c-.215.21299-.33595.50307-.33595.80571s.12096.59272.33595.80571l5.03078,5.03078c.21299.215.50307.33595.80571.33595s.59272-.12095.80571-.33595l9.25585-9.25585 9.25585,9.25585c.21299.215.50307.33595.80571.33595s.59272-.12095.80571-.33595l5.03078-5.03078c.215-.21299.33595-.50307.33595-.80571s-.12096-.59272-.33595-.80571l-9.25585-9.25585 9.25585-9.25585c.215-.21299.33595-.50307.33595-.80571s-.12096-.59272-.33595-.80571l-5.03078-5.03078c-.21299-.215-.50307-.33595-.80571-.33595s-.59272.12096-.80571.33595l-9.25585,9.25585-9.25585-9.25585c-.21299-.215-.50307-.33595-.80571-.33595s-.59272.12096-.80571.33595l-5.03078,5.03078c-.02747.0249-.0537.05113-.0786.07861z" fill="url(#linearGradient1483)"/>
<path d="m-14.375,15.84375c-.17983.04723-.34245.1448-.46875.28125l-4.03125,4.03125c-.37716.38074-.37716.99426 0,1.375l9.375,9.375-9.375,9.375c-.37716.38074-.37716.99426 0,1.375l4.03125,4.03125c.38074.37716.99426.37716 1.375,0l9.375-9.375 9.375,9.375c.38074.37716.99426.37716 1.375,0l4.03125-4.03125c.37716-.38074.37716-.99426 0-1.375l-9.375-9.375 9.375-9.375c.37716-.38074.37716-.99426 0-1.375l-4.03125-4.03125c-.38074-.37716-.99426-.37716-1.375,0l-9.375,9.375-9.375-9.375c-.23321-.24402-.57586-.35036-.90625-.28125z" fill="url(#linearGradient1485)" transform="translate(36.09375,1.1033)"/>
<path d="m21.84375,17.65625c-.03546.01371-.06746.03504-.09375.0625l-4.03125,4.03125c-.03189.03516-.05351.0784-.0625.125-.01608.05084-.01608.10541 0,.15625 .01371.03546.03504.06746.0625.09375l9.5625,9.5625c.0878.08375.15625.1984.15625.3125s-.06844.22875-.15625.3125l-9.5625,9.5625c-.03189.03516-.05351.0784-.0625.125-.01608.05084-.01608.10541 0,.15625 .01371.03546.03504.06746.0625.09375l4.03125,4.03125c.03516.03189.0784.05351.125.0625 .05084.01608.10541.01608.15625,0 .03546-.01371.06746-.03504.09375-.0625l9.5625-9.5625c.08375-.08781.1984-.15625.3125-.15625s.22875.06844.3125.15625l9.5625,9.5625c.03516.03189.0784.05351.125.0625 .05084.01608.10541.01608.15625,0 .03546-.01371.06746-.03504.09375-.0625l4.03125-4.03125c.03189-.03516.05351-.0784.0625-.125 .01608-.05084.01608-.10541 0-.15625-.01371-.03546-.03504-.06746-.0625-.09375l-9.5625-9.5625c-.08781-.08375-.15625-.1984-.15625-.3125s.06844-.22875.15625-.3125l9.5625-9.5625c.03189-.03516.05351-.0784.0625-.125 .01608-.05084.01608-.10541 0-.15625-.01371-.03546-.03504-.06746-.0625-.09375l-4.03125-4.03125c-.03516-.03189-.0784-.05351-.125-.0625-.05084-.01608-.10541-.01608-.15625,0-.03546.01371-.06746.03504-.09375.0625l-9.5625,9.5625c-.08375.0878-.1984.15625-.3125.15625s-.22875-.06844-.3125-.15625l-9.5625-9.5625c-.03516-.03189-.0784-.05351-.125-.0625-.05084-.01608-.10541-.01608-.15625,0z" fill="url(#linearGradient1487)"/>
</g>
</svg>
